<svg width="19" height="19" viewBox="0 0 19 19" fill="none" xmlns="http://www.w3.org/2000/svg">
<path id="Vector" d="M13.0556 13.0556L17.5 17.5M8.16667 1.5C6.84813 1.5 5.5592 1.89099 4.46287 2.62354C3.36654 3.35608 2.51206 4.39727 2.00747 5.61544C1.50289 6.83362 1.37087 8.17406 1.6281 9.46727C1.88534 10.7605 2.52027 11.9484 3.45262 12.8807C4.38497 13.8131 5.57286 14.448 6.86607 14.7052C8.15927 14.9625 9.49972 14.8304 10.7179 14.3259C11.9361 13.8213 12.9773 12.9668 13.7098 11.8705C14.4423 10.7741 14.8333 9.48521 14.8333 8.16667C14.8332 6.39859 14.1308 4.70296 12.8806 3.45275C11.6304 2.20253 9.93474 1.50011 8.16667 1.5Z" stroke="#4D5865" stroke-width="1.2" stroke-miterlimit="10" stroke-linecap="round"/>
</svg>
